<?xml version="1.0" standalone="no"?>
<!DOCTYPE svg PUBLIC "-//W3C//DTD SVG 20010904//EN"
 "http://www.w3.org/TR/2001/REC-SVG-20010904/DTD/svg10.dtd">
<svg version="1.0" xmlns="http://www.w3.org/2000/svg"
 width="287.000000pt" height="287.000000pt" viewBox="0 0 287.000000 287.000000"
 preserveAspectRatio="xMidYMid meet">
<metadata>
Created by potrace 1.14, written by Peter Selinger 2001-2017
</metadata>
<g transform="translate(0.000000,287.000000) scale(0.100000,-0.100000)"
fill="#000000" stroke="none">
<path d="M2093 2835 c-28 -19 -39 -75 -42 -197 l-1 -56 -327 3 c-479 6 -835
14 -841 20 -3 3 -6 26 -8 52 -6 85 -15 146 -26 166 -9 17 -19 19 -100 15 -115
-5 -118 -9 -118 -138 l0 -95 -107 0 c-193 1 -254 -16 -315 -90 -35 -43 -52
-147 -63 -395 -3 -69 -8 -145 -10 -170 -2 -25 -7 -99 -10 -165 -4 -66 -8 -136
-10 -155 -2 -19 -6 -84 -10 -145 -3 -60 -8 -126 -10 -145 -23 -237 -22 -1051
1 -1169 14 -71 102 -122 234 -136 30 -3 78 -8 105 -10 59 -7 539 -6 640 0 39
2 250 6 470 9 220 3 436 8 480 11 264 16 275 17 390 29 275 30 343 73 377 243
14 68 17 744 4 1003 -12 239 -13 266 -20 470 -4 102 -9 259 -11 350 -2 91 -7
185 -11 210 -10 67 -41 126 -90 168 -60 54 -128 72 -284 77 -41 1 -77 3 -80 4
-3 0 -4 30 -2 66 5 89 -5 153 -27 164 -9 5 -48 12 -86 16 -55 4 -75 2 -92 -10z"/>
</g>
</svg>
