<?xml version="1.0" standalone="no"?>
<!DOCTYPE svg PUBLIC "-//W3C//DTD SVG 20010904//EN"
 "http://www.w3.org/TR/2001/REC-SVG-20010904/DTD/svg10.dtd">
<svg version="1.0" xmlns="http://www.w3.org/2000/svg"
 width="235.000000pt" height="235.000000pt" viewBox="0 0 235.000000 235.000000"
 preserveAspectRatio="xMidYMid meet">
<metadata>
Created by potrace 1.14, written by Peter Selinger 2001-2017
</metadata>
<g transform="translate(0.000000,235.000000) scale(0.100000,-0.100000)"
fill="#000000" stroke="none">
<path d="M1080 1892 c-25 -9 -60 -25 -77 -35 -51 -27 -148 -129 -198 -207 -42
-64 -108 -208 -120 -263 -2 -12 -11 -50 -18 -84 -39 -173 -7 -396 75 -528 90
-142 237 -224 420 -231 163 -6 293 43 403 152 110 109 159 245 159 444 0 168
-22 261 -105 438 -16 34 -28 65 -28 68 0 4 -3 10 -8 13 -4 3 -21 23 -37 44
-53 72 -131 140 -194 170 -81 38 -202 47 -272 19z m245 -112 c171 -82 305
-362 305 -633 0 -160 -40 -275 -128 -369 -104 -111 -259 -158 -406 -124 -130
31 -226 105 -287 224 -30 59 -33 71 -49 167 -10 61 -5 219 9 263 5 17 7 32 4
32 -3 0 0 7 7 15 7 8 10 15 7 15 -17 0 52 152 108 240 54 84 106 134 180 171
53 27 68 30 130 27 47 -3 86 -12 120 -28z"/>
<path d="M782 1137 c-2 -59 7 -81 31 -71 13 5 17 19 17 63 0 52 -2 57 -23 59
-22 1 -24 -3 -25 -51z"/>
<path d="M882 1127 c3 -54 5 -62 23 -62 18 0 20 7 21 60 2 58 0 61 -23 63 -23
2 -24 0 -21 -61z"/>
<path d="M974 1176 c-3 -7 -4 -35 -2 -62 3 -43 6 -49 26 -50 21 -1 22 3 22 62
0 58 -2 64 -20 64 -11 0 -23 -6 -26 -14z"/>
<path d="M1072 1128 c3 -55 5 -63 23 -63 17 0 20 7 21 55 2 54 -6 70 -34 70
-10 0 -12 -16 -10 -62z"/>
<path d="M1169 1183 c-4 -25 -5 -100 -1 -110 2 -6 11 -10 20 -9 13 2 18 16 20
64 3 57 1 62 -18 62 -11 0 -21 -3 -21 -7z"/>
<path d="M1267 1183 c-2 -5 -4 -33 -3 -63 1 -50 3 -55 24 -56 23 -1 24 3 24
81 0 14 0 30 -1 35 -1 12 -38 14 -44 3z"/>
<path d="M1362 1128 c2 -49 6 -62 21 -64 18 -2 19 -1 21 66 2 44 -7 60 -32 60
-10 0 -12 -16 -10 -62z"/>
<path d="M1459 1165 c-3 -107 -5 -103 39 -96 4 0 7 13 6 29 -1 15 -3 42 -3 60
-1 25 -5 32 -21 32 -14 0 -20 -7 -21 -25z"/>
<path d="M1557 1182 c-2 -4 -3 -32 -2 -62 1 -49 3 -55 23 -56 20 -1 22 3 22
60 0 54 -2 62 -20 63 -11 1 -21 -1 -23 -5z"/>
<path d="M1072 981 c-12 -21 -22 -41 -22 -45 0 -3 20 -6 45 -6 49 0 50 4 15
62 l-17 28 -21 -39z"/>
</g>
</svg>
